<svg xmlns="http://www.w3.org/2000/svg" width="33" height="32" viewBox="0 0 33 32" fill="none"><g id="Instagram" clip-path="url(#clip0_916_557)"><g id="Instagram_2"><path id="Path" d="M16.825 0C8.03462 0 0.900391 7.13423 0.900391 15.9246C0.900391 24.715 8.03462 31.8493 16.825 31.8493C25.6154 31.8493 32.7496 24.715 32.7496 15.9246C32.7496 7.13423 25.6154 0 16.825 0Z" fill="#2F5D82"></path><path id="Vector" d="M13.5079 15.9246C13.5079 14.0924 14.9928 12.6067 16.825 12.6067C18.6572 12.6067 20.1429 14.0924 20.1429 15.9246C20.1429 17.7568 18.6572 19.2425 16.825 19.2425C14.9928 19.2425 13.5079 17.7568 13.5079 15.9246ZM11.7143 15.9246C11.7143 18.7472 14.0023 21.0353 16.825 21.0353C19.6476 21.0353 21.9357 18.7472 21.9357 15.9246C21.9357 13.1019 19.6476 10.8139 16.825 10.8139C14.0023 10.8139 11.7143 13.1019 11.7143 15.9246ZM20.9436 10.6112C20.9435 10.8475 21.0135 11.0784 21.1446 11.2749C21.2758 11.4713 21.4623 11.6245 21.6805 11.715C21.8987 11.8055 22.1388 11.8292 22.3705 11.7832C22.6022 11.7372 22.8151 11.6236 22.9822 11.4566C23.1493 11.2896 23.2631 11.0769 23.3093 10.8452C23.3555 10.6135 23.3319 10.3734 23.2416 10.1551C23.1513 9.93683 22.9983 9.75024 22.8019 9.61892C22.6056 9.48761 22.3747 9.41747 22.1385 9.41737H22.138C21.8213 9.41752 21.5177 9.54333 21.2938 9.76718C21.0698 9.99103 20.9439 10.2946 20.9436 10.6112ZM12.804 24.026C11.8336 23.9818 11.3062 23.8202 10.9557 23.6836C10.491 23.5027 10.1595 23.2872 9.81088 22.9391C9.46229 22.591 9.24651 22.2598 9.0664 21.7951C8.92977 21.4448 8.76814 20.9172 8.72403 19.9468C8.67577 18.8977 8.66614 18.5826 8.66614 15.9247C8.66614 13.2668 8.67657 12.9525 8.72403 11.9025C8.76822 10.9321 8.93105 10.4056 9.0664 10.0542C9.24731 9.58952 9.46277 9.25797 9.81088 8.90938C10.159 8.56079 10.4902 8.34501 10.9557 8.1649C11.306 8.02827 11.8336 7.86663 12.804 7.82252C13.8531 7.77427 14.1683 7.76463 16.825 7.76463C19.4817 7.76463 19.7971 7.77506 20.8471 7.82252C21.8175 7.86671 22.344 8.02954 22.6954 8.1649C23.1601 8.34501 23.4917 8.56126 23.8402 8.90938C24.1888 9.25749 24.4038 9.58952 24.5847 10.0542C24.7214 10.4045 24.883 10.9321 24.9271 11.9025C24.9753 12.9525 24.985 13.2668 24.985 15.9247C24.985 18.5826 24.9753 18.8968 24.9271 19.9468C24.8829 20.9172 24.7205 21.4446 24.5847 21.7951C24.4038 22.2598 24.1884 22.5913 23.8402 22.9391C23.4921 23.2869 23.1601 23.5027 22.6954 23.6836C22.3451 23.8202 21.8175 23.9819 20.8471 24.026C19.798 24.0742 19.4829 24.0839 16.825 24.0839C14.1671 24.0839 13.8528 24.0742 12.804 24.026ZM12.7216 6.03195C11.662 6.08021 10.938 6.24821 10.3057 6.49425C9.65092 6.74832 9.09658 7.08919 8.54264 7.64225C7.98871 8.19532 7.64871 8.75053 7.39464 9.40535C7.1486 10.038 6.9806 10.7616 6.93235 11.8212C6.8833 12.8824 6.87207 13.2217 6.87207 15.9246C6.87207 18.6275 6.8833 18.9667 6.93235 20.028C6.9806 21.0876 7.1486 21.8111 7.39464 22.4438C7.64871 23.0982 7.98879 23.6541 8.54264 24.2069C9.0965 24.7597 9.65092 25.1001 10.3057 25.3549C10.9392 25.6009 11.662 25.7689 12.7216 25.8172C13.7834 25.8654 14.1221 25.8775 16.825 25.8775C19.5279 25.8775 19.8671 25.8662 20.9283 25.8172C21.988 25.7689 22.7115 25.6009 23.3442 25.3549C23.9986 25.1001 24.5533 24.76 25.1073 24.2069C25.6612 23.6538 26.0005 23.0982 26.2553 22.4438C26.5013 21.8111 26.6701 21.0875 26.7176 20.028C26.7658 18.9659 26.7771 18.6275 26.7771 15.9246C26.7771 13.2217 26.7658 12.8824 26.7176 11.8212C26.6693 10.7616 26.5013 10.0376 26.2553 9.40535C26.0005 8.75093 25.6603 8.19619 25.1073 7.64225C24.5542 7.08831 23.9986 6.74832 23.345 6.49425C22.7115 6.24821 21.9879 6.07941 20.9291 6.03195C19.8679 5.9837 19.5286 5.97168 16.8258 5.97168C14.1229 5.97168 13.7834 5.98291 12.7216 6.03195Z" fill="white"></path></g></g><defs><clipPath id="clip0_916_557"><rect width="31.8493" height="31.8493" fill="white" transform="translate(0.900391)"></rect></clipPath></defs></svg>