<svg xmlns="http://www.w3.org/2000/svg" width="33" height="32" viewBox="0 0 33 32" fill="none"><g clip-path="url(#clip0_166_118)"><path d="M16.825 0C8.03462 0 0.900391 7.13423 0.900391 15.9246C0.900391 24.715 8.03462 31.8493 16.825 31.8493C25.6154 31.8493 32.7496 24.715 32.7496 15.9246C32.7496 7.13423 25.6154 0 16.825 0Z" fill="white"></path><path d="M13.5084 15.9246C13.5084 14.0924 14.9932 12.6067 16.8255 12.6067C18.6577 12.6067 20.1433 14.0924 20.1433 15.9246C20.1433 17.7568 18.6577 19.2425 16.8255 19.2425C14.9932 19.2425 13.5084 17.7568 13.5084 15.9246ZM11.7148 15.9246C11.7148 18.7472 14.0028 21.0353 16.8255 21.0353C19.6481 21.0353 21.9361 18.7472 21.9361 15.9246C21.9361 13.1019 19.6481 10.8139 16.8255 10.8139C14.0028 10.8139 11.7148 13.1019 11.7148 15.9246ZM20.9441 10.6112C20.944 10.8475 21.014 11.0784 21.1451 11.2749C21.2763 11.4713 21.4628 11.6245 21.681 11.715C21.8992 11.8055 22.1393 11.8292 22.371 11.7832C22.6027 11.7372 22.8156 11.6236 22.9827 11.4566C23.1498 11.2896 23.2636 11.0769 23.3098 10.8452C23.3559 10.6135 23.3324 10.3734 23.2421 10.1551C23.1518 9.93683 22.9988 9.75024 22.8024 9.61892C22.6061 9.48761 22.3752 9.41747 22.1389 9.41737H22.1385C21.8218 9.41752 21.5182 9.54333 21.2943 9.76718C21.0703 9.99103 20.9444 10.2946 20.9441 10.6112ZM12.8045 24.026C11.8341 23.9818 11.3067 23.8202 10.9562 23.6836C10.4915 23.5027 10.16 23.2872 9.81137 22.9391C9.46278 22.591 9.247 22.2598 9.06689 21.7951C8.93026 21.4448 8.76862 20.9172 8.72451 19.9468C8.67626 18.8977 8.66663 18.5826 8.66663 15.9247C8.66663 13.2668 8.67706 12.9525 8.72451 11.9025C8.7687 10.9321 8.93153 10.4056 9.06689 10.0542C9.2478 9.58952 9.46326 9.25797 9.81137 8.90938C10.1595 8.56079 10.4907 8.34501 10.9562 8.1649C11.3065 8.02827 11.8341 7.86663 12.8045 7.82252C13.8536 7.77427 14.1687 7.76463 16.8255 7.76463C19.4822 7.76463 19.7976 7.77506 20.8476 7.82252C21.818 7.86671 22.3445 8.02954 22.6959 8.1649C23.1606 8.34501 23.4921 8.56126 23.8407 8.90938C24.1893 9.25749 24.4043 9.58952 24.5852 10.0542C24.7218 10.4045 24.8835 10.9321 24.9276 11.9025C24.9758 12.9525 24.9855 13.2668 24.9855 15.9247C24.9855 18.5826 24.9758 18.8968 24.9276 19.9468C24.8834 20.9172 24.721 21.4446 24.5852 21.7951C24.4043 22.2598 24.1888 22.5913 23.8407 22.9391C23.4926 23.2869 23.1606 23.5027 22.6959 23.6836C22.3456 23.8202 21.818 23.9819 20.8476 24.026C19.7985 24.0742 19.4834 24.0839 16.8255 24.0839C14.1676 24.0839 13.8533 24.0742 12.8045 24.026ZM12.7221 6.03195C11.6625 6.08021 10.9385 6.24821 10.3062 6.49425C9.65141 6.74832 9.09707 7.08919 8.54313 7.64225C7.98919 8.19532 7.6492 8.75053 7.39513 9.40535C7.14909 10.038 6.98108 10.7616 6.93283 11.8212C6.88379 12.8824 6.87256 13.2217 6.87256 15.9246C6.87256 18.6275 6.88379 18.9667 6.93283 20.028C6.98108 21.0876 7.14909 21.8111 7.39513 22.4438C7.6492 23.0982 7.98927 23.6541 8.54313 24.2069C9.09699 24.7597 9.65141 25.1001 10.3062 25.3549C10.9397 25.6009 11.6625 25.7689 12.7221 25.8172C13.7838 25.8654 14.1226 25.8775 16.8255 25.8775C19.5283 25.8775 19.8676 25.8662 20.9288 25.8172C21.9885 25.7689 22.712 25.6009 23.3447 25.3549C23.9991 25.1001 24.5538 24.76 25.1078 24.2069C25.6617 23.6538 26.001 23.0982 26.2558 22.4438C26.5018 21.8111 26.6706 21.0875 26.7181 20.028C26.7663 18.9659 26.7775 18.6275 26.7775 15.9246C26.7775 13.2217 26.7663 12.8824 26.7181 11.8212C26.6698 10.7616 26.5018 10.0376 26.2558 9.40535C26.001 8.75093 25.6608 8.19619 25.1078 7.64225C24.5547 7.08831 23.9991 6.74832 23.3455 6.49425C22.712 6.24821 21.9884 6.07941 20.9296 6.03195C19.8684 5.9837 19.5291 5.97168 16.8262 5.97168C14.1234 5.97168 13.7838 5.98291 12.7221 6.03195Z" fill="#2F5D82"></path></g><defs><clipPath id="clip0_166_118"><rect width="31.8493" height="31.8493" fill="white" transform="translate(0.900391)"></rect></clipPath></defs></svg>