<svg xmlns="http://www.w3.org/2000/svg" width="32" height="32" viewBox="0 0 32 32" fill="none"><path d="M15.9246 0C7.1412 0 0 7.1412 0 15.9246C0 24.7081 7.1412 31.8493 15.9246 31.8493C24.7081 31.8493 31.8493 24.7081 31.8493 15.9246C31.8493 7.1412 24.7081 0 15.9246 0Z" fill="#2F5D82"></path><path fill-rule="evenodd" clip-rule="evenodd" d="M19.4646 23.8103C20.5777 24.2972 20.9951 23.2769 20.9951 23.2769L23.9401 8.48232C23.9169 7.4852 22.5719 8.08811 22.5719 8.08811L6.08453 14.5578C6.08453 14.5578 5.29611 14.8361 5.36568 15.3231C5.43524 15.81 6.06134 16.0419 6.06134 16.0419L10.2122 17.4333C10.2122 17.4333 11.4644 21.5377 11.7195 22.3262C11.9513 23.0914 12.1601 23.1146 12.1601 23.1146C12.3919 23.2073 12.6006 23.045 12.6006 23.045L15.2906 20.6102L19.4646 23.8103ZM20.1839 11.1027C20.1839 11.1027 20.7636 10.7548 20.7404 11.1027C20.7404 11.1027 20.8332 11.1491 20.5317 11.4737C20.2534 11.752 13.6909 17.642 12.8098 18.4304C12.7402 18.4768 12.6938 18.5464 12.6938 18.6391L12.4387 20.8189C12.3924 21.0508 12.0909 21.074 12.0213 20.8653L10.9315 17.2941C10.8851 17.155 10.9315 16.9927 11.0706 16.8999L20.1839 11.1027Z" fill="white"></path></svg>