<svg xmlns="http://www.w3.org/2000/svg" width="34" height="32" viewBox="0 0 34 32" fill="none"><path d="M16.6702 0C7.52078 0 0.0820312 7.1412 0.0820312 15.9246C0.0820312 24.7081 7.52078 31.8493 16.6702 31.8493C25.8196 31.8493 33.2583 24.7081 33.2583 15.9246C33.2583 7.1412 25.8196 0 16.6702 0Z" fill="#2F5D82"></path><path d="M24.7936 8.08474C24.2449 7.60046 22.0234 6.04989 17.0717 6.02865C17.0717 6.02865 11.235 5.6888 8.38963 8.19519C6.80543 9.71602 6.24786 11.9378 6.19034 14.6991C6.13281 17.4561 6.05758 22.6261 11.2483 24.0279H11.2527L11.2483 26.1647C11.2483 26.1647 11.2173 27.0314 11.8102 27.2055C12.5271 27.4179 12.9519 26.7595 13.6378 26.05C14.014 25.6592 14.5317 25.09 14.9255 24.6524C18.4745 24.937 21.2048 24.2828 21.5146 24.1851C22.2314 23.96 26.2893 23.4629 26.9486 18.293C27.6301 12.9743 26.6167 9.60557 24.7936 8.08474ZM25.3954 17.9191C24.8378 22.2352 21.55 22.5071 20.9437 22.694C20.6871 22.7747 18.2886 23.3482 15.2707 23.1571C15.2707 23.1571 13.0227 25.7612 12.3236 26.4366C12.2129 26.5428 12.0846 26.5853 12.0005 26.5641C11.8811 26.5343 11.8457 26.3984 11.8501 26.1987C11.8501 25.9099 11.8678 22.643 11.8678 22.643C11.8634 22.643 11.8634 22.643 11.8678 22.643C7.47362 21.4748 7.73028 17.0738 7.77896 14.7713C7.82763 12.4688 8.279 10.5784 9.61981 9.3082C12.0227 7.21812 16.9832 7.52824 16.9832 7.52824C21.1694 7.54523 23.174 8.75594 23.6386 9.15952C25.183 10.434 25.9707 13.4714 25.3954 17.9191Z" fill="white"></path><path d="M19.1121 14.8521C18.9661 14.8521 18.8422 14.7416 18.8333 14.5972C18.7846 13.6839 18.3377 13.2378 17.4261 13.1911C17.2712 13.1826 17.1518 13.0551 17.1606 12.9065C17.1695 12.7578 17.3022 12.6431 17.4571 12.6516C18.6607 12.7153 19.3334 13.378 19.3953 14.5675C19.4042 14.7162 19.2847 14.8436 19.1298 14.8478C19.1209 14.8521 19.1165 14.8521 19.1121 14.8521Z" fill="white"></path><path d="M20.5454 15.3109H20.541C20.3861 15.3066 20.2622 15.1834 20.2667 15.0348C20.2888 14.1172 20.0144 13.3737 19.4303 12.762C18.8506 12.1503 18.0497 11.8189 16.9921 11.7467C16.8372 11.734 16.7221 11.6065 16.7354 11.4578C16.7487 11.3092 16.8814 11.1987 17.0363 11.2115C18.2311 11.2964 19.1737 11.6957 19.8463 12.4009C20.5233 13.1104 20.8508 13.9982 20.8287 15.0475C20.8242 15.1962 20.6959 15.3109 20.5454 15.3109Z" fill="white"></path><path d="M22.015 15.8631C21.8601 15.8631 21.7362 15.7442 21.7362 15.5955C21.723 13.9515 21.2318 12.6983 20.2317 11.7595C19.2449 10.8334 17.9926 10.3618 16.519 10.3491C16.3641 10.3491 16.2402 10.2259 16.2402 10.0772C16.2402 9.92852 16.3686 9.80957 16.519 9.80957C18.143 9.82231 19.5237 10.3448 20.6167 11.3729C21.7141 12.4009 22.2761 13.8198 22.2938 15.587C22.2982 15.74 22.1743 15.8631 22.015 15.8631C22.0194 15.8631 22.0194 15.8631 22.015 15.8631Z" fill="white"></path><path d="M17.4921 18.1783C17.4921 18.1783 17.8859 18.2122 18.0983 17.9616L18.5099 17.4646C18.709 17.2182 19.1913 17.061 19.6604 17.3116C19.9215 17.4518 20.395 17.7322 20.687 17.9404C21.0012 18.1613 21.6384 18.671 21.6429 18.6753C21.9482 18.9217 22.019 19.2828 21.811 19.6694C21.811 19.6694 21.811 19.6736 21.811 19.6778C21.5986 20.0389 21.311 20.3788 20.9525 20.6931C20.9481 20.6931 20.9481 20.6974 20.9437 20.6974C20.6472 20.9353 20.3551 21.0712 20.0719 21.101C20.0365 21.1095 19.9967 21.1095 19.9436 21.1095C19.8197 21.1095 19.6958 21.0925 19.5719 21.0542L19.563 21.0415C19.1205 20.9225 18.386 20.6252 17.1646 19.9752C16.3681 19.5547 15.7088 19.1256 15.1468 18.6965C14.8503 18.4714 14.5494 18.2207 14.2396 17.9234C14.2308 17.9149 14.2175 17.9021 14.2086 17.8936C14.1998 17.8851 14.1865 17.8724 14.1777 17.8639C14.1688 17.8554 14.1555 17.8427 14.1467 17.8342C14.1378 17.8257 14.1246 17.8129 14.1157 17.8044C13.8104 17.5071 13.5449 17.2182 13.3103 16.9336C12.8634 16.3983 12.4165 15.7611 11.9784 14.9964C11.3013 13.8197 10.9916 13.1145 10.8677 12.6939L10.8544 12.6854C10.8146 12.5665 10.7969 12.4476 10.7969 12.3286C10.7969 12.2776 10.7969 12.2394 10.8057 12.2054C10.8411 11.9293 10.9827 11.6532 11.2261 11.3685C11.2261 11.3643 11.2305 11.3643 11.2305 11.36C11.558 11.0117 11.912 10.7398 12.2881 10.5359C12.2881 10.5359 12.2926 10.5359 12.297 10.5359C12.6953 10.3362 13.0714 10.4042 13.3325 10.6973C13.3325 10.6973 13.8679 11.3133 14.098 11.6149C14.3148 11.8995 14.6069 12.3498 14.7529 12.6005C15.014 13.0508 14.8503 13.5138 14.5936 13.705L14.0759 14.1001C13.8148 14.304 13.8502 14.6821 13.8502 14.6821C13.8502 14.6821 14.6158 17.4773 17.4921 18.1783Z" fill="white"></path></svg>