<svg xmlns="http://www.w3.org/2000/svg" width="34" height="32" viewBox="0 0 34 32" fill="none"><g id="Viber" clip-path="url(#clip0_166_122)"><g id="Viber_2"><path id="Path" d="M16.6702 0C7.52078 0 0.0820312 7.1412 0.0820312 15.9246C0.0820312 24.7081 7.52078 31.8493 16.6702 31.8493C25.8196 31.8493 33.2583 24.7081 33.2583 15.9246C33.2583 7.1412 25.8196 0 16.6702 0Z" fill="white"></path><g id="Group"><path id="Vector" d="M24.7941 8.08474C24.2453 7.60046 22.0239 6.04989 17.0722 6.02865C17.0722 6.02865 11.2355 5.6888 8.39011 8.19519C6.80592 9.71602 6.24835 11.9378 6.19082 14.6991C6.1333 17.4561 6.05807 22.6261 11.2487 24.0279H11.2532L11.2487 26.1647C11.2487 26.1647 11.2178 27.0314 11.8107 27.2055C12.5276 27.4179 12.9524 26.7595 13.6383 26.05C14.0145 25.6592 14.5322 25.09 14.926 24.6524C18.475 24.937 21.2053 24.2828 21.515 24.1851C22.2319 23.96 26.2898 23.4629 26.9491 18.293C27.6306 12.9743 26.6172 9.60557 24.7941 8.08474ZM25.3959 17.9191C24.8383 22.2352 21.5504 22.5071 20.9442 22.694C20.6875 22.7747 18.2891 23.3482 15.2712 23.1571C15.2712 23.1571 13.0232 25.7612 12.3241 26.4366C12.2134 26.5428 12.0851 26.5853 12.001 26.5641C11.8815 26.5343 11.8461 26.3984 11.8506 26.1987C11.8506 25.9099 11.8683 22.643 11.8683 22.643C11.8638 22.643 11.8638 22.643 11.8683 22.643C7.47411 21.4748 7.73077 17.0738 7.77945 14.7713C7.82812 12.4688 8.27949 10.5784 9.6203 9.3082C12.0231 7.21812 16.9837 7.52824 16.9837 7.52824C21.1699 7.54523 23.1745 8.75594 23.6391 9.15952C25.1835 10.434 25.9711 13.4714 25.3959 17.9191Z" fill="#2F5D82"></path><path id="Vector_2" d="M19.1121 14.8521C18.9661 14.8521 18.8422 14.7416 18.8333 14.5972C18.7846 13.6839 18.3377 13.2378 17.4261 13.1911C17.2712 13.1826 17.1518 13.0551 17.1606 12.9065C17.1695 12.7578 17.3022 12.6431 17.4571 12.6516C18.6607 12.7153 19.3334 13.378 19.3953 14.5675C19.4042 14.7162 19.2847 14.8436 19.1298 14.8478C19.1209 14.8521 19.1165 14.8521 19.1121 14.8521Z" fill="#2F5D82"></path><path id="Vector_3" d="M20.5459 15.3109H20.5415C20.3866 15.3066 20.2627 15.1834 20.2672 15.0348C20.2893 14.1172 20.0149 13.3737 19.4308 12.762C18.8511 12.1503 18.0502 11.8189 16.9926 11.7467C16.8377 11.734 16.7226 11.6065 16.7359 11.4578C16.7492 11.3092 16.8819 11.1987 17.0368 11.2115C18.2316 11.2964 19.1741 11.6957 19.8468 12.4009C20.5238 13.1104 20.8513 13.9982 20.8291 15.0475C20.8247 15.1962 20.6964 15.3109 20.5459 15.3109Z" fill="#2F5D82"></path><path id="Vector_4" d="M22.015 15.8629C21.8601 15.8629 21.7362 15.744 21.7362 15.5953C21.723 13.9512 21.2318 12.6981 20.2317 11.7592C19.2449 10.8331 17.9926 10.3616 16.519 10.3488C16.3641 10.3488 16.2402 10.2256 16.2402 10.077C16.2402 9.92827 16.3686 9.80933 16.519 9.80933C18.143 9.82207 19.5237 10.3446 20.6167 11.3726C21.7141 12.4007 22.2761 13.8196 22.2938 15.5868C22.2982 15.7397 22.1743 15.8629 22.015 15.8629C22.0194 15.8629 22.0194 15.8629 22.015 15.8629Z" fill="#2F5D82"></path><path id="Vector_5" d="M17.4926 18.1783C17.4926 18.1783 17.8864 18.2122 18.0988 17.9616L18.5104 17.4646C18.7095 17.2182 19.1918 17.061 19.6609 17.3116C19.922 17.4518 20.3955 17.7322 20.6875 17.9404C21.0017 18.1613 21.6389 18.671 21.6433 18.6753C21.9487 18.9217 22.0195 19.2828 21.8115 19.6694C21.8115 19.6694 21.8115 19.6736 21.8115 19.6778C21.5991 20.0389 21.3115 20.3788 20.953 20.6931C20.9486 20.6931 20.9486 20.6974 20.9442 20.6974C20.6477 20.9353 20.3556 21.0712 20.0724 21.101C20.037 21.1095 19.9972 21.1095 19.9441 21.1095C19.8202 21.1095 19.6963 21.0925 19.5724 21.0542L19.5635 21.0415C19.121 20.9225 18.3865 20.6252 17.1651 19.9752C16.3686 19.5547 15.7093 19.1256 15.1473 18.6965C14.8508 18.4714 14.5499 18.2207 14.2401 17.9234C14.2313 17.9149 14.218 17.9021 14.2091 17.8936C14.2003 17.8851 14.187 17.8724 14.1782 17.8639C14.1693 17.8554 14.156 17.8427 14.1472 17.8342C14.1383 17.8257 14.1251 17.8129 14.1162 17.8044C13.8109 17.5071 13.5454 17.2182 13.3108 16.9336C12.8639 16.3983 12.417 15.7611 11.9789 14.9964C11.3018 13.8197 10.9921 13.1145 10.8682 12.6939L10.8549 12.6854C10.8151 12.5665 10.7974 12.4476 10.7974 12.3286C10.7974 12.2776 10.7974 12.2394 10.8062 12.2054C10.8416 11.9293 10.9832 11.6532 11.2266 11.3685C11.2266 11.3643 11.231 11.3643 11.231 11.36C11.5585 11.0117 11.9125 10.7398 12.2886 10.5359C12.2886 10.5359 12.2931 10.5359 12.2975 10.5359C12.6957 10.3362 13.0719 10.4042 13.333 10.6973C13.333 10.6973 13.8684 11.3133 14.0985 11.6149C14.3153 11.8995 14.6074 12.3498 14.7534 12.6005C15.0145 13.0508 14.8508 13.5138 14.5941 13.705L14.0764 14.1001C13.8153 14.304 13.8507 14.6821 13.8507 14.6821C13.8507 14.6821 14.6162 17.4773 17.4926 18.1783Z" fill="#2F5D82"></path></g></g></g><defs><clipPath id="clip0_166_122"><rect width="33.1763" height="31.8493" fill="white" transform="translate(0.0820312)"></rect></clipPath></defs></svg>