<svg xmlns="http://www.w3.org/2000/svg" width="33" height="32" viewBox="0 0 33 32" fill="none"><g id="WhatsApp" clip-path="url(#clip0_916_570)"><g id="WhatsApp_2"><path id="Path" d="M16.4158 0C7.62544 0 0.491211 7.13423 0.491211 15.9246C0.491211 24.715 7.62544 31.8493 16.4158 31.8493C25.2062 31.8493 32.3405 24.715 32.3405 15.9246C32.3405 7.13423 25.2062 0 16.4158 0Z" fill="#2F5D82"></path><path id="Vector" d="M23.5491 8.76618C21.8418 7.00873 19.4818 6.05469 17.0716 6.05469C11.9499 6.05469 7.83244 10.2223 7.88265 15.2938C7.88265 16.9007 8.33457 18.4572 9.08776 19.8632L7.78223 24.6334L12.6529 23.3781C14.0086 24.1313 15.515 24.4828 17.0214 24.4828C22.0929 24.4828 26.2103 20.3151 26.2103 15.2436C26.2103 12.7832 25.2563 10.4734 23.5491 8.76618ZM17.0716 22.9262C15.7159 22.9262 14.3601 22.5747 13.2052 21.8717L12.9039 21.7211L9.99159 22.4743L10.7448 19.6121L10.5439 19.3109C8.33457 15.7458 9.38904 11.0258 13.0044 8.81639C16.6197 6.60703 21.2895 7.6615 23.4988 11.2768C25.7082 14.8921 24.6537 19.5619 21.0384 21.7713C19.8835 22.5245 18.4776 22.9262 17.0716 22.9262ZM21.4903 17.3526L20.938 17.1015C20.938 17.1015 20.1346 16.75 19.6325 16.499C19.5822 16.499 19.532 16.4487 19.4818 16.4487C19.3312 16.4487 19.2307 16.499 19.1303 16.5492C19.1303 16.5492 19.0801 16.5994 18.3771 17.4028C18.3269 17.5032 18.2265 17.5534 18.1261 17.5534H18.0759C18.0256 17.5534 17.9252 17.5032 17.875 17.453L17.6239 17.3526C17.0716 17.1015 16.5695 16.8002 16.1678 16.3985C16.0673 16.2981 15.9167 16.1977 15.8163 16.0972C15.4648 15.7458 15.1133 15.3441 14.8622 14.8921L14.812 14.7917C14.7618 14.7415 14.7618 14.6913 14.7116 14.5909C14.7116 14.4904 14.7116 14.39 14.7618 14.3398C14.7618 14.3398 14.9627 14.0887 15.1133 13.9381C15.2137 13.8377 15.2639 13.687 15.3644 13.5866C15.4648 13.436 15.515 13.2351 15.4648 13.0845C15.4146 12.8334 14.812 11.4777 14.6614 11.1764C14.561 11.0258 14.4605 10.9755 14.3099 10.9253H14.1593C14.0588 10.9253 13.9082 10.9253 13.7576 10.9253C13.6571 10.9253 13.5567 10.9755 13.4563 10.9755L13.4061 11.0258C13.3056 11.076 13.2052 11.1764 13.1048 11.2266C13.0044 11.327 12.9541 11.4275 12.8537 11.5279C12.5022 11.9798 12.3014 12.5321 12.3014 13.0845C12.3014 13.4862 12.4018 13.8879 12.5524 14.2394L12.6027 14.39C13.0546 15.3441 13.6571 16.1977 14.4605 16.9509L14.6614 17.1517C14.812 17.3024 14.9627 17.4028 15.0631 17.5534C16.1176 18.4572 17.3227 19.11 18.6784 19.4615C18.829 19.5117 19.0299 19.5117 19.1805 19.5619C19.3312 19.5619 19.532 19.5619 19.6827 19.5619C19.9337 19.5619 20.235 19.4615 20.4359 19.3611C20.5865 19.2607 20.6869 19.2607 20.7873 19.1602L20.8878 19.0598C20.9882 18.9594 21.0886 18.9092 21.189 18.8087C21.2895 18.7083 21.3899 18.6079 21.4401 18.5075C21.5405 18.3066 21.5907 18.0555 21.641 17.8045C21.641 17.7041 21.641 17.5534 21.641 17.453C21.641 17.453 21.5907 17.4028 21.4903 17.3526Z" fill="white"></path></g></g><defs><clipPath id="clip0_916_570"><rect width="31.8493" height="31.8493" fill="white" transform="translate(0.491211)"></rect></clipPath></defs></svg>